<?xml version="1.0" standalone="no"?><!DOCTYPE svg PUBLIC "-//W3C//DTD SVG 1.1//EN" "http://www.w3.org/Graphics/SVG/1.1/DTD/svg11.dtd"><svg t="1652629943325" class="icon" viewBox="0 0 1024 1024" version="1.1" xmlns="http://www.w3.org/2000/svg" p-id="6354" xmlns:xlink="http://www.w3.org/1999/xlink" width="200" height="200"><defs><style type="text/css">@font-face { font-family: feedback-iconfont; src: url("//at.alicdn.com/t/font_1031158_u69w8yhxdu.woff2?t=1630033759944") format("woff2"), url("//at.alicdn.com/t/font_1031158_u69w8yhxdu.woff?t=1630033759944") format("woff"), url("//at.alicdn.com/t/font_1031158_u69w8yhxdu.ttf?t=1630033759944") format("truetype"); }
</style></defs><path d="M736.005 696.494H174.18c-17.673 0-32-14.327-32-32V255.582c0-17.673 14.327-32 32-32h157.213c7.96 0 15.635 2.967 21.525 8.321l47.547 43.222h335.54c17.673 0 32 14.327 32 32v357.369c0 17.673-14.327 32-32 32z m-529.825-64h497.825V339.125H388.094a32.002 32.002 0 0 1-21.525-8.321l-47.547-43.222H206.18v344.912z" fill="" p-id="6355"></path><path d="M853.18 821.092H317.509c-17.673 0-32-14.327-32-32s14.327-32 32-32H821.18V414.206c0-17.673 14.327-32 32-32s32 14.327 32 32v374.886c0 17.673-14.327 32-32 32z" fill="" p-id="6356"></path></svg>