<?xml version="1.0" standalone="no"?><!DOCTYPE svg PUBLIC "-//W3C//DTD SVG 1.1//EN" "http://www.w3.org/Graphics/SVG/1.1/DTD/svg11.dtd"><svg t="1651316011868" class="icon" viewBox="0 0 1024 1024" version="1.1" xmlns="http://www.w3.org/2000/svg" p-id="20746" data-spm-anchor-id="a313x.7781069.0.i111" xmlns:xlink="http://www.w3.org/1999/xlink" width="200" height="200"><defs><style type="text/css">@font-face { font-family: feedback-iconfont; src: url("//at.alicdn.com/t/font_1031158_u69w8yhxdu.woff2?t=1630033759944") format("woff2"), url("//at.alicdn.com/t/font_1031158_u69w8yhxdu.woff?t=1630033759944") format("woff"), url("//at.alicdn.com/t/font_1031158_u69w8yhxdu.ttf?t=1630033759944") format("truetype"); }
</style></defs><path d="M184.32 307.2h655.36v389.12a327.68 327.68 0 0 1-327.68 327.68 327.68 327.68 0 0 1-327.68-327.68V307.2z" p-id="20747" data-spm-anchor-id="a313x.7781069.0.i110" class="" fill="#515151"></path><path d="M286.72 0h184.32v286.72H184.32V102.4A102.4 102.4 0 0 1 286.72 0z" p-id="20748" data-spm-anchor-id="a313x.7781069.0.i107" class="" fill="#515151"></path><path d="M552.96 0h184.32a102.4 102.4 0 0 1 102.4 102.4v184.32H552.96V0z" p-id="20749" data-spm-anchor-id="a313x.7781069.0.i108" class="" fill="#515151"></path><path d="M481.28 40.96m30.72 0l0 0q30.72 0 30.72 30.72l0 143.36q0 30.72-30.72 30.72l0 0q-30.72 0-30.72-30.72l0-143.36q0-30.72 30.72-30.72Z" fill="#d4237a" p-id="20750" data-spm-anchor-id="a313x.7781069.0.i109" class=""></path></svg>