<?xml version="1.0" standalone="no"?><!DOCTYPE svg PUBLIC "-//W3C//DTD SVG 1.1//EN" "http://www.w3.org/Graphics/SVG/1.1/DTD/svg11.dtd"><svg t="1652613459831" class="icon" viewBox="0 0 1024 1024" version="1.1" xmlns="http://www.w3.org/2000/svg" p-id="1807" xmlns:xlink="http://www.w3.org/1999/xlink" width="200" height="200"><defs><style type="text/css">@font-face { font-family: feedback-iconfont; src: url("//at.alicdn.com/t/font_1031158_u69w8yhxdu.woff2?t=1630033759944") format("woff2"), url("//at.alicdn.com/t/font_1031158_u69w8yhxdu.woff?t=1630033759944") format("woff"), url("//at.alicdn.com/t/font_1031158_u69w8yhxdu.ttf?t=1630033759944") format("truetype"); }
</style></defs><path d="M967.11 513.04C967.11 764.23 763.34 968 512.16 968 260.69 968 57.19 764.23 57.19 513.04c0-251.19 203.5-454.96 454.96-454.96 35.5 0 69.91 4.07 102.97 11.92 28.18 6.23 55.55 15.45 81.29 27.1 159.61 70.72 270.7 230.32 270.7 415.94z" fill="#d81e06" p-id="1808" data-spm-anchor-id="a313x.7781069.0.i1" class=""></path><path d="M695.87 513.04c-2.71-59.88-34.14-111.91-80.75-143.61C585.59 349.65 550.09 338 512.15 338c-101.89 0-184.53 82.65-184.53 184.53 0 101.61 82.65 184.53 184.53 184.53 101.61 0 184.26-82.92 184.26-184.53 0-3.26 0-6.24-0.54-9.49zM512.16 625.76c-56.91 0-103.24-46.34-103.24-103.24 0-56.9 46.33-103.24 103.24-103.24 56.9 0 102.97 46.34 102.97 103.24-0.01 56.91-46.07 103.24-102.97 103.24z" fill="#e6e6e6" p-id="1809" data-spm-anchor-id="a313x.7781069.0.i4" class=""></path><path d="M696.41 97.1v415.94h-81.29V70c28.18 6.23 55.55 15.45 81.29 27.1z" fill="#e6e6e6" p-id="1810" data-spm-anchor-id="a313x.7781069.0.i3" class=""></path></svg>