<?xml version="1.0" standalone="no"?><!DOCTYPE svg PUBLIC "-//W3C//DTD SVG 1.1//EN" "http://www.w3.org/Graphics/SVG/1.1/DTD/svg11.dtd"><svg t="1652629663064" class="icon" viewBox="0 0 1024 1024" version="1.1" xmlns="http://www.w3.org/2000/svg" p-id="5391" data-spm-anchor-id="a313x.7781069.0.i10" xmlns:xlink="http://www.w3.org/1999/xlink" width="200" height="200"><defs><style type="text/css">@font-face { font-family: feedback-iconfont; src: url("//at.alicdn.com/t/font_1031158_u69w8yhxdu.woff2?t=1630033759944") format("woff2"), url("//at.alicdn.com/t/font_1031158_u69w8yhxdu.woff?t=1630033759944") format("woff"), url("//at.alicdn.com/t/font_1031158_u69w8yhxdu.ttf?t=1630033759944") format("truetype"); }
</style></defs><path d="M409.6 238.92992h-68.27008c-37.5296 0-68.25984 30.74048-68.25984 68.27008v409.6c0 37.5296 30.73024 68.27008 68.25984 68.27008H409.6c37.5296 0 68.27008-30.74048 68.27008-68.27008V307.2c0-37.5296-30.74048-68.27008-68.27008-68.27008zM409.6 716.8h-68.27008V307.2H409.6v409.6zM682.67008 238.92992H614.4c-37.5296 0-68.27008 30.74048-68.27008 68.27008v409.6c0 37.5296 30.74048 68.27008 68.27008 68.27008h68.27008c37.5296 0 68.25984-30.74048 68.25984-68.27008V307.2c0-37.5296-30.73024-68.27008-68.25984-68.27008z m0 477.87008H614.4V307.2h68.27008v409.6z" p-id="5392" data-spm-anchor-id="a313x.7781069.0.i11" class="selected" fill="#2c2c2c"></path></svg>